<svg width="50" height="50" viewBox="0 0 50 50" fill="none" xmlns="http://www.w3.org/2000/svg">
<path d="M47 25.5209C47 23.8959 46.8542 22.3334 46.5833 20.8334H25V29.698H37.3333C36.8021 32.5625 35.1875 34.9896 32.7604 36.6146V42.3646H40.1667C44.5 38.375 47 32.5 47 25.5209Z" fill="#4285F4"/>
<path d="M25 47.9166C31.1875 47.9166 36.375 45.8645 40.1667 42.3645L32.7604 36.6145C30.7083 37.9895 28.0833 38.802 25 38.802C19.0313 38.802 13.9792 34.7708 12.1771 29.3541H4.52084V35.2916C8.29168 42.7812 16.0417 47.9166 25 47.9166Z" fill="#34A853"/>
<path d="M12.1771 29.3542C11.7188 27.9792 11.4583 26.5105 11.4583 25C11.4583 23.4896 11.7188 22.0209 12.1771 20.6459V14.7084H4.52085C2.91668 17.9018 2.08193 21.4263 2.08335 25C2.08335 28.698 2.96876 32.198 4.52085 35.2917L12.1771 29.3542Z" fill="#FBBC05"/>
<path d="M25 11.198C28.3646 11.198 31.3854 12.3542 33.7604 14.625L40.3333 8.05212C36.3646 4.35421 31.1771 2.08337 25 2.08337C16.0417 2.08337 8.29168 7.21879 4.52084 14.7084L12.1771 20.6459C13.9792 15.2292 19.0313 11.198 25 11.198Z" fill="#EA4335"/>
</svg>
