<svg width="260" height="152" viewBox="0 0 260 152" fill="none" xmlns="http://www.w3.org/2000/svg">
<path d="M55.8223 0.519997L50.8723 41H42.6223L44.6573 24.555H27.1123L25.0773 41H16.8273L21.7773 0.519997H30.0273L28.0473 16.745H45.5923L47.5723 0.519997H55.8223ZM69.3387 41.55C67.762 41.5867 66.222 41.1467 64.7187 40.23C63.2153 39.3133 61.9687 37.975 60.9787 36.215C60.0253 34.455 59.5487 32.3283 59.5487 29.835C59.5487 28.0383 59.8787 26.315 60.5387 24.665C61.1987 22.9783 62.1337 21.475 63.3437 20.155C64.5537 18.7983 65.9837 17.735 67.6337 16.965C69.2837 16.1583 71.0987 15.755 73.0787 15.755C74.692 15.755 75.9937 15.9383 76.9837 16.305C78.0103 16.6717 78.8353 17.1483 79.4587 17.735C80.082 18.285 80.6137 18.89 81.0537 19.55L80.5587 20.705L81.7687 16.965H88.9187L86.0037 41H78.3037L78.9087 35.775L79.3487 37.425C79.2753 37.425 79.0187 37.645 78.5787 38.085C78.1387 38.4883 77.497 38.965 76.6537 39.515C75.847 40.065 74.8203 40.56 73.5737 41C72.3637 41.4033 70.952 41.5867 69.3387 41.55ZM73.6837 35.39C74.417 35.39 75.1137 35.2617 75.7737 35.005C76.4703 34.7117 77.1303 34.3083 77.7537 33.795C78.377 33.245 78.927 32.5667 79.4037 31.76L80.1187 25.875C79.9353 25.0683 79.587 24.39 79.0737 23.84C78.5603 23.2533 77.9187 22.8133 77.1487 22.52C76.3787 22.19 75.4987 22.025 74.5087 22.025C73.262 22.025 72.1987 22.245 71.3187 22.685C70.4387 23.125 69.7053 23.6933 69.1187 24.39C68.5687 25.0867 68.1653 25.8383 67.9087 26.645C67.652 27.415 67.5237 28.1667 67.5237 28.9C67.5237 30.22 67.7803 31.375 68.2937 32.365C68.807 33.3183 69.522 34.07 70.4387 34.62C71.392 35.1333 72.4737 35.39 73.6837 35.39ZM107.748 41.66C106.318 41.66 104.833 41.3483 103.293 40.725C101.753 40.1017 100.616 39.295 99.8827 38.305L101.643 36.325L99.8277 52.55H92.1827L96.7477 16.415H103.348L103.568 21.09L101.918 19.44C103.678 18.34 105.383 17.46 107.033 16.8C108.719 16.1033 110.296 15.755 111.763 15.755C113.779 15.755 115.631 16.2133 117.318 17.13C119.004 18.01 120.343 19.2567 121.333 20.87C122.359 22.4833 122.873 24.4083 122.873 26.645C122.873 29.285 122.268 31.76 121.058 34.07C119.848 36.3433 118.106 38.1767 115.833 39.57C113.596 40.9633 110.901 41.66 107.748 41.66ZM107.528 35.225C109.141 35.225 110.498 34.8767 111.598 34.18C112.734 33.4833 113.596 32.5667 114.183 31.43C114.769 30.2933 115.063 29.1017 115.063 27.855C115.063 26.645 114.769 25.6 114.183 24.72C113.596 23.8033 112.844 23.1067 111.928 22.63C111.011 22.1167 110.039 21.86 109.013 21.86C108.169 21.86 107.381 22.0067 106.648 22.3C105.951 22.5567 105.273 22.96 104.613 23.51C103.989 24.0233 103.384 24.6833 102.798 25.49L102.083 31.375C102.303 31.9617 102.578 32.4933 102.908 32.97C103.274 33.4467 103.678 33.85 104.118 34.18C104.558 34.51 105.053 34.7667 105.603 34.95C106.189 35.1333 106.831 35.225 107.528 35.225ZM141.104 41.66C139.674 41.66 138.189 41.3483 136.649 40.725C135.109 40.1017 133.973 39.295 133.239 38.305L134.999 36.325L133.184 52.55H125.539L130.104 16.415H136.704L136.924 21.09L135.274 19.44C137.034 18.34 138.739 17.46 140.389 16.8C142.076 16.1033 143.653 15.755 145.119 15.755C147.136 15.755 148.988 16.2133 150.674 17.13C152.361 18.01 153.699 19.2567 154.689 20.87C155.716 22.4833 156.229 24.4083 156.229 26.645C156.229 29.285 155.624 31.76 154.414 34.07C153.204 36.3433 151.463 38.1767 149.189 39.57C146.953 40.9633 144.258 41.66 141.104 41.66ZM140.884 35.225C142.498 35.225 143.854 34.8767 144.954 34.18C146.091 33.4833 146.953 32.5667 147.539 31.43C148.126 30.2933 148.419 29.1017 148.419 27.855C148.419 26.645 148.126 25.6 147.539 24.72C146.953 23.8033 146.201 23.1067 145.284 22.63C144.368 22.1167 143.396 21.86 142.369 21.86C141.526 21.86 140.738 22.0067 140.004 22.3C139.308 22.5567 138.629 22.96 137.969 23.51C137.346 24.0233 136.741 24.6833 136.154 25.49L135.439 31.375C135.659 31.9617 135.934 32.4933 136.264 32.97C136.631 33.4467 137.034 33.85 137.474 34.18C137.914 34.51 138.409 34.7667 138.959 34.95C139.546 35.1333 140.188 35.225 140.884 35.225ZM160.731 52.55L181.136 16.965H188.066L168.156 52.55H160.731ZM168.596 41.11L159.796 16.965H168.431L174.976 37.26L168.596 41.11Z" fill="#372A28"/>
<path d="M130.988 110.52C133.298 110.52 135.315 110.795 137.038 111.345C138.798 111.895 140.265 112.702 141.438 113.765C142.611 114.828 143.491 116.093 144.078 117.56C144.701 118.99 145.013 120.622 145.013 122.455C145.013 124.215 144.72 126.012 144.133 127.845C143.583 129.678 142.685 131.383 141.438 132.96C140.191 134.5 138.541 135.765 136.488 136.755C134.471 137.708 131.996 138.185 129.063 138.185H123.618L122.023 151H113.773L118.723 110.52H130.988ZM129.668 130.43C130.988 130.43 132.088 130.192 132.968 129.715C133.848 129.238 134.563 128.633 135.113 127.9C135.663 127.167 136.048 126.415 136.268 125.645C136.525 124.875 136.653 124.197 136.653 123.61C136.653 122.987 136.525 122.253 136.268 121.41C136.011 120.567 135.498 119.833 134.728 119.21C133.958 118.55 132.785 118.22 131.208 118.22H126.038L124.553 130.43H129.668ZM151.687 107.605H159.387L154.107 151H146.407L151.687 107.605ZM171.121 151.55C169.544 151.587 168.004 151.147 166.501 150.23C164.997 149.313 163.751 147.975 162.761 146.215C161.807 144.455 161.331 142.328 161.331 139.835C161.331 138.038 161.661 136.315 162.321 134.665C162.981 132.978 163.916 131.475 165.126 130.155C166.336 128.798 167.766 127.735 169.416 126.965C171.066 126.158 172.881 125.755 174.861 125.755C176.474 125.755 177.776 125.938 178.766 126.305C179.792 126.672 180.617 127.148 181.241 127.735C181.864 128.285 182.396 128.89 182.836 129.55L182.341 130.705L183.551 126.965H190.701L187.786 151H180.086L180.691 145.775L181.131 147.425C181.057 147.425 180.801 147.645 180.361 148.085C179.921 148.488 179.279 148.965 178.436 149.515C177.629 150.065 176.602 150.56 175.356 151C174.146 151.403 172.734 151.587 171.121 151.55ZM175.466 145.39C176.199 145.39 176.896 145.262 177.556 145.005C178.252 144.712 178.912 144.308 179.536 143.795C180.159 143.245 180.709 142.567 181.186 141.76L181.901 135.875C181.717 135.068 181.369 134.39 180.856 133.84C180.342 133.253 179.701 132.813 178.931 132.52C178.161 132.19 177.281 132.025 176.291 132.025C175.044 132.025 173.981 132.245 173.101 132.685C172.221 133.125 171.487 133.693 170.901 134.39C170.351 135.087 169.947 135.838 169.691 136.645C169.434 137.415 169.306 138.167 169.306 138.9C169.306 140.22 169.562 141.375 170.076 142.365C170.589 143.318 171.304 144.07 172.221 144.62C173.174 145.133 174.256 145.39 175.466 145.39ZM216.13 149.46C215.03 150.157 213.71 150.707 212.17 151.11C210.666 151.513 209.181 151.715 207.715 151.715C206.725 151.715 205.515 151.55 204.085 151.22C202.655 150.927 201.243 150.377 199.85 149.57C198.456 148.727 197.283 147.553 196.33 146.05C195.413 144.51 194.955 142.548 194.955 140.165C194.955 138.588 195.23 136.993 195.78 135.38C196.33 133.767 197.155 132.282 198.255 130.925C199.355 129.568 200.748 128.487 202.435 127.68C204.121 126.837 206.12 126.415 208.43 126.415C210.886 126.415 212.94 126.782 214.59 127.515C216.276 128.248 217.651 129.147 218.715 130.21L214.37 134.885C213.893 134.408 213.196 133.932 212.28 133.455C211.363 132.978 210.245 132.74 208.925 132.74C207.861 132.74 206.853 133.033 205.9 133.62C204.946 134.207 204.176 135.013 203.59 136.04C203.003 137.067 202.71 138.258 202.71 139.615C202.71 140.715 202.966 141.705 203.48 142.585C203.993 143.465 204.726 144.18 205.68 144.73C206.633 145.243 207.77 145.5 209.09 145.5C209.823 145.5 210.501 145.408 211.125 145.225C211.785 145.042 212.371 144.767 212.885 144.4L216.13 149.46ZM235.409 145.115C236.142 145.115 236.839 144.987 237.499 144.73C238.196 144.473 238.892 144.162 239.589 143.795L242.284 149.735C241.074 150.322 239.791 150.78 238.434 151.11C237.114 151.44 235.831 151.605 234.584 151.605C231.944 151.605 229.634 151.165 227.654 150.285C225.711 149.368 224.189 147.993 223.089 146.16C221.989 144.29 221.439 141.962 221.439 139.175C221.439 137.745 221.696 136.26 222.209 134.72C222.759 133.18 223.584 131.75 224.684 130.43C225.821 129.073 227.287 127.973 229.084 127.13C230.917 126.287 233.117 125.865 235.684 125.865C237.077 125.865 238.452 126.048 239.809 126.415C241.202 126.745 242.467 127.368 243.604 128.285C244.777 129.165 245.767 130.412 246.574 132.025C247.417 133.638 248.004 135.728 248.334 138.295L228.974 143.08L227.764 138.79L242.834 134.885L240.139 135.71C239.846 134.463 239.259 133.51 238.379 132.85C237.536 132.19 236.546 131.86 235.409 131.86C233.906 131.86 232.696 132.172 231.779 132.795C230.862 133.418 230.184 134.225 229.744 135.215C229.341 136.205 229.139 137.232 229.139 138.295C229.139 140.128 229.469 141.54 230.129 142.53C230.826 143.52 231.651 144.198 232.604 144.565C233.594 144.932 234.529 145.115 235.409 145.115Z" fill="#372A28"/>
<path d="M162 58C162 63.3842 160.965 68.7157 158.955 73.69C156.945 78.6644 153.999 83.1842 150.284 86.9914C146.57 90.7986 142.16 93.8186 137.307 95.8791C132.454 97.9395 127.253 99 122 99C116.747 99 111.546 97.9395 106.693 95.8791C101.84 93.8186 97.4301 90.7986 93.7157 86.9914C90.0014 83.1842 87.055 78.6644 85.0448 73.69C83.0346 68.7157 82 63.3842 82 58L87.5896 58C87.5896 62.6318 88.4797 67.2182 90.209 71.4975C91.9383 75.7767 94.4729 79.6649 97.6682 82.9401C100.863 86.2153 104.657 88.8133 108.832 90.5858C113.007 92.3583 117.481 93.2706 122 93.2706C126.519 93.2706 130.993 92.3583 135.168 90.5858C139.343 88.8133 143.136 86.2153 146.332 82.9401C149.527 79.6649 152.062 75.7767 153.791 71.4975C155.52 67.2183 156.41 62.6318 156.41 58L162 58Z" fill="#372A28"/>
</svg>
