<svg width="86" height="86" viewBox="0 0 86 86" fill="none" xmlns="http://www.w3.org/2000/svg">
<path d="M12.084 68.3828C12.084 68.3828 21.0001 57 43 57C65 57 73.9164 68.3828 73.9164 68.3828M43 3C20.9086 3 3 20.9086 3 43C3 65.0912 20.9086 83 43 83C65.0912 83 83 65.0912 83 43C83 20.9086 65.0912 3 43 3ZM43 43C49.6276 43 55 37.6276 55 31C55 24.3726 49.6276 19 43 19C36.3724 19 31 24.3726 31 31C31 37.6276 36.3724 43 43 43Z" stroke="#372A28" stroke-width="5" stroke-linecap="round" stroke-linejoin="round"/>
</svg>
