<svg width="50" height="45" viewBox="0 0 50 45" fill="none" xmlns="http://www.w3.org/2000/svg">
<path d="M25.055 44.8786C13.0817 44.8786 0.164307 37.8538 0.164307 22.4393C0.164307 7.02483 13.0817 0 25.055 0C31.7068 0 37.8436 2.04723 42.3926 5.78043C47.3279 9.8749 49.9457 15.6553 49.9457 22.4393C49.9457 29.2233 47.3279 34.9636 42.3926 39.058C37.8436 42.7912 31.6639 44.8786 25.055 44.8786Z" fill="url(#paint0_radial_157_3541)"/>
<path d="M16.6437 13.6241C14.8455 13.6241 13.2105 15.0451 13.2105 17.4055C13.2105 19.7658 14.8455 21.1828 16.6437 21.1828C18.4461 21.1828 20.0769 19.7618 20.0769 17.4055C20.0769 15.0492 18.4633 13.6241 16.6437 13.6241Z" fill="#422B0D"/>
<path d="M16.4934 15.2017C15.8841 14.9287 15.1502 15.1696 14.8541 15.7396C14.6266 16.1852 14.7296 16.7191 15.1116 17.0643C15.721 17.3373 16.4548 17.0964 16.7509 16.5264C16.9784 16.0808 16.8754 15.5469 16.4934 15.2017Z" fill="#896024"/>
<path d="M33.123 13.6241C31.3249 13.6241 29.6898 15.0451 29.6898 17.4055C29.6898 19.7658 31.3249 21.1828 33.123 21.1828C34.9212 21.1828 36.5562 19.7618 36.5562 17.4055C36.5562 15.0492 34.9212 13.6241 33.123 13.6241Z" fill="#422B0D"/>
<path d="M32.9513 15.2017C32.3419 14.9287 31.6081 15.1696 31.312 15.7396C31.0845 16.1852 31.1875 16.7191 31.5695 17.0643C32.1789 17.3373 32.9127 17.0964 33.2088 16.5264C33.4363 16.0808 33.3333 15.5469 32.9513 15.2017Z" fill="#896024"/>
<path d="M24.7975 33.964C20.9051 33.9921 17.1886 32.4627 14.5837 29.7572C14.3863 29.5444 14.3391 29.2433 14.4635 28.9864C14.588 28.7255 14.8627 28.5569 15.1674 28.5529C15.3047 28.5529 15.442 28.589 15.5622 28.6533C17.6307 29.7652 21.0896 31.1461 24.7975 31.1461H24.8576C28.5611 31.1461 32.0244 29.7652 34.0886 28.6533C34.2087 28.589 34.3461 28.5529 34.4834 28.5529C34.7881 28.5569 35.0627 28.7255 35.1872 28.9864C35.3159 29.2433 35.2687 29.5444 35.067 29.7572C32.4621 32.4627 28.7371 33.9961 24.8447 33.964" fill="#422B0D"/>
<path d="M45.6069 9.10018C47.8943 12.5524 49.0873 16.6629 49.0873 21.2351C49.0873 28.019 46.4695 33.7593 41.5343 37.8538C36.9853 41.587 30.8056 43.6744 24.1967 43.6744C16.4462 43.6744 8.31813 40.7239 3.52023 34.4658C8.13788 41.5549 16.8239 44.8786 25.055 44.8786C31.6639 44.8786 37.8436 42.7912 42.3926 39.058C47.3279 34.9636 49.9457 29.2233 49.9457 22.4393C49.9457 17.3252 48.4565 12.7812 45.6069 9.10018Z" fill="#EB8F00"/>
<defs>
<radialGradient id="paint0_radial_157_3541" cx="0" cy="0" r="1" gradientUnits="userSpaceOnUse" gradientTransform="translate(25.055 22.4393) scale(24.4442 22.8647)">
<stop offset="0.5" stop-color="#FDE030"/>
<stop offset="0.92" stop-color="#F7C02B"/>
<stop offset="1" stop-color="#F4A223"/>
</radialGradient>
</defs>
</svg>
