<svg width="50" height="45" viewBox="0 0 50 45" fill="none" xmlns="http://www.w3.org/2000/svg">
<path d="M24.944 44.8786C12.9707 44.8786 0.0533447 37.8538 0.0533447 22.4393C0.0533447 7.02483 12.9707 0 24.944 0C31.5958 0 37.7327 2.04723 42.2817 5.78043C47.2169 9.8749 49.8347 15.6553 49.8347 22.4393C49.8347 29.2233 47.2169 34.9636 42.2817 39.058C37.7327 42.7912 31.5529 44.8786 24.944 44.8786Z" fill="url(#paint0_radial_157_3530)"/>
<path d="M45.496 9.10018C47.7833 12.5524 48.9764 16.6629 48.9764 21.2351C48.9764 28.019 46.3586 33.7593 41.4233 37.8538C36.8744 41.587 30.6946 43.6744 24.0857 43.6744C16.3353 43.6744 8.20716 40.7239 3.40927 34.4658C8.02692 41.5549 16.7129 44.8786 24.944 44.8786C31.5529 44.8786 37.7327 42.7912 42.2817 39.058C47.2169 34.9636 49.8347 29.2233 49.8347 22.4393C49.8347 17.3252 48.3455 12.7812 45.496 9.10018Z" fill="#EB8F00"/>
<path d="M16.5327 13.6241C14.7346 13.6241 13.0995 15.0451 13.0995 17.4055C13.0995 19.7658 14.7346 21.1828 16.5327 21.1828C18.3351 21.1828 19.9659 19.7618 19.9659 17.4055C19.9659 15.0492 18.3523 13.6241 16.5327 13.6241Z" fill="#422B0D"/>
<path d="M16.3825 15.2017C15.7731 14.9287 15.0392 15.1696 14.7431 15.7396C14.5157 16.1852 14.6187 16.7191 15.0006 17.0643C15.61 17.3373 16.3439 17.0964 16.64 16.5264C16.8674 16.0808 16.7644 15.5469 16.3825 15.2017Z" fill="#896024"/>
<path d="M33.0121 13.6241C31.2139 13.6241 29.5789 15.0451 29.5789 17.4055C29.5789 19.7658 31.2139 21.1828 33.0121 21.1828C34.8102 21.1828 36.4453 19.7618 36.4453 17.4055C36.4453 15.0492 34.8102 13.6241 33.0121 13.6241Z" fill="#422B0D"/>
<path d="M32.8404 15.2017C32.231 14.9287 31.4971 15.1696 31.201 15.7396C30.9736 16.1852 31.0766 16.7191 31.4585 17.0643C32.0679 17.3373 32.8017 17.0964 33.0979 16.5264C33.3253 16.0808 33.2223 15.5469 32.8404 15.2017Z" fill="#896024"/>
<path d="M25.1929 28.577C29.0853 28.5449 32.8103 30.0783 35.4153 32.7838C35.6127 32.9966 35.6599 33.2977 35.5354 33.5546C35.411 33.8155 35.1363 33.9841 34.8316 33.9881C34.6943 33.9881 34.557 33.952 34.4368 33.8877C32.3683 32.7758 28.9093 31.3949 25.2015 31.3949H25.1414C21.4379 31.3949 17.9746 32.7758 15.9104 33.8877C15.7902 33.952 15.6529 33.9881 15.5156 33.9881C15.2109 33.9841 14.9405 33.8155 14.8161 33.5546C14.6873 33.2977 14.7345 32.9966 14.9362 32.7838C17.5412 30.0783 21.2619 28.5449 25.1543 28.577" fill="#422B0D"/>
<defs>
<radialGradient id="paint0_radial_157_3530" cx="0" cy="0" r="1" gradientUnits="userSpaceOnUse" gradientTransform="translate(24.944 22.4393) scale(24.4442 22.8647)">
<stop offset="0.5" stop-color="#FDE030"/>
<stop offset="0.92" stop-color="#F7C02B"/>
<stop offset="1" stop-color="#F4A223"/>
</radialGradient>
</defs>
</svg>
