<svg width="50" height="45" viewBox="0 0 50 45" fill="none" xmlns="http://www.w3.org/2000/svg">
<path d="M24.9995 44.8786C13.0262 44.8786 0.108826 37.8538 0.108826 22.4393C0.108826 7.02483 13.0262 0 24.9995 0C31.6513 0 37.7882 2.04723 42.3371 5.78043C47.2724 9.8749 49.8902 15.6553 49.8902 22.4393C49.8902 29.2233 47.2724 34.9636 42.3371 39.058C37.7882 42.7912 31.6084 44.8786 24.9995 44.8786Z" fill="url(#paint0_radial_157_3531)"/>
<path d="M45.5515 9.10018C47.8388 12.5524 49.0319 16.6629 49.0319 21.2351C49.0319 28.019 46.414 33.7593 41.4788 37.8538C36.9298 41.587 30.7501 43.6744 24.1412 43.6744C16.3907 43.6744 8.26265 40.7239 3.46475 34.4658C8.0824 41.5549 16.7684 44.8786 24.9995 44.8786C31.6084 44.8786 37.7882 42.7912 42.3371 39.058C47.2724 34.9636 49.8902 29.2233 49.8902 22.4393C49.8902 17.3252 48.401 12.7812 45.5515 9.10018Z" fill="#EB8F00"/>
<path d="M35.8999 32.5149H14.4424C13.494 32.5149 12.7258 31.7964 12.7258 30.9092C12.7258 30.0221 13.494 29.3036 14.4424 29.3036H35.8999C36.8483 29.3036 37.6165 30.0221 37.6165 30.9092C37.6165 31.7964 36.8483 32.5149 35.8999 32.5149Z" fill="#422B0D"/>
<path d="M16.8757 15.6312C15.0775 15.6312 13.4425 17.0522 13.4425 19.4126C13.4425 21.7729 15.0775 23.1899 16.8757 23.1899C18.6738 23.1899 20.3089 21.7689 20.3089 19.4126C20.3089 17.0563 18.6738 15.6312 16.8757 15.6312Z" fill="#422B0D"/>
<path d="M16.7083 17.2088C16.0989 16.9358 15.3651 17.1767 15.069 17.7467C14.8415 18.1923 14.9445 18.7262 15.3265 19.0714C15.9359 19.3444 16.6697 19.1035 16.9658 18.5335C17.1933 18.0879 17.0903 17.554 16.7083 17.2088Z" fill="#896024"/>
<path d="M33.325 15.6312C31.5269 15.6312 29.8918 17.0522 29.8918 19.4126C29.8918 21.7729 31.5269 23.1899 33.325 23.1899C35.1232 23.1899 36.7582 21.7689 36.7582 19.4126C36.7582 17.0563 35.1317 15.6312 33.325 15.6312Z" fill="#422B0D"/>
<path d="M33.1662 17.2088C32.5568 16.9358 31.823 17.1767 31.5269 17.7467C31.2994 18.1923 31.4024 18.7262 31.7844 19.0714C32.3937 19.3444 33.1276 19.1035 33.4237 18.5335C33.6512 18.0879 33.5482 17.554 33.1662 17.2088Z" fill="#896024"/>
<defs>
<radialGradient id="paint0_radial_157_3531" cx="0" cy="0" r="1" gradientUnits="userSpaceOnUse" gradientTransform="translate(24.9995 22.4393) scale(24.4442 22.8647)">
<stop offset="0.5" stop-color="#FDE030"/>
<stop offset="0.92" stop-color="#F7C02B"/>
<stop offset="1" stop-color="#F4A223"/>
</radialGradient>
</defs>
</svg>
