<svg width="50" height="45" viewBox="0 0 50 45" fill="none" xmlns="http://www.w3.org/2000/svg">
<path d="M24.8897 44.88C12.9169 44.88 0 37.855 0 22.44C0 7.02504 12.9169 0 24.8897 0C31.5412 0 37.6778 2.0473 42.2266 5.78061C47.1616 9.87521 49.7793 15.6558 49.7793 22.44C49.7793 29.2242 47.1616 34.9647 42.2266 39.0593C37.6778 42.7926 31.4983 44.88 24.8897 44.88Z" fill="url(#paint0_radial_157_3633)"/>
<path d="M45.4408 9.1004C47.7281 12.5527 48.9211 16.6634 48.9211 21.2357C48.9211 28.0199 46.3034 33.7603 41.3683 37.8549C36.8195 41.5882 30.64 43.6757 24.0314 43.6757C16.2813 43.6757 8.15351 40.7251 3.35581 34.4668C7.97327 41.5561 16.6589 44.88 24.8897 44.88C31.4983 44.88 37.6778 42.7926 42.2266 39.0593C47.1616 34.9647 49.7793 29.2242 49.7793 22.44C49.7793 17.3258 48.2902 12.7815 45.4408 9.1004Z" fill="#EB8F00"/>
<path d="M25.0184 30.1073C20.5125 30.1073 17.294 32.6364 16.3499 34.0414C15.9895 34.491 15.9079 35.0851 16.1354 35.6069C16.3156 35.9401 16.6847 36.1408 17.0795 36.1288C17.2254 36.1208 17.3713 36.0927 17.5086 36.0485C19.783 35.3661 21.757 34.4026 25.0184 34.4026C28.2798 34.4026 30.2538 35.4062 32.5282 36.0485C32.6655 36.0927 32.8114 36.1208 32.9574 36.1288C33.3522 36.1408 33.7212 35.9401 33.9014 35.6069C34.1503 35.0891 34.0645 34.4829 33.6869 34.0414C32.7428 32.6364 29.5243 30.1073 25.0184 30.1073Z" fill="#422B0D"/>
<path d="M16.4787 17.2374C14.6806 17.2374 13.0456 18.6585 13.0456 21.0189C13.0456 23.3793 14.6806 24.7964 16.4787 24.7964C18.281 24.7964 19.9117 23.3753 19.9117 21.0189C19.9117 18.6625 18.2982 17.2374 16.4787 17.2374Z" fill="#422B0D"/>
<path d="M16.3285 18.8151C15.7191 18.5421 14.9853 18.783 14.6892 19.353C14.4617 19.7986 14.5647 20.3325 14.9467 20.6778C15.556 20.9507 16.2898 20.7099 16.5859 20.1398C16.8134 19.6943 16.7104 19.1603 16.3285 18.8151Z" fill="#896024"/>
<path d="M32.9573 17.2374C31.1593 17.2374 29.5243 18.6585 29.5243 21.0189C29.5243 23.3793 31.1593 24.7964 32.9573 24.7964C34.7554 24.7964 36.3904 23.3753 36.3904 21.0189C36.3904 18.6625 34.7554 17.2374 32.9573 17.2374Z" fill="#422B0D"/>
<path d="M32.7857 18.8151C32.1763 18.5421 31.4425 18.783 31.1464 19.353C30.919 19.7986 31.022 20.3325 31.4039 20.6778C32.0133 20.9507 32.7471 20.7099 33.0432 20.1398C33.2706 19.6943 33.1676 19.1603 32.7857 18.8151Z" fill="#896024"/>
<path d="M9.35507 11.1598C8.41098 11.3204 8.36807 12.605 9.39799 12.6451C11.6724 12.6732 13.8695 11.8824 15.5346 10.4372C16.1697 9.92341 16.7061 9.31323 17.1224 8.6308C17.3713 8.29761 17.2854 7.83998 16.9293 7.60715C16.5731 7.37432 16.0839 7.45461 15.835 7.78779L15.7921 7.82794C14.1099 9.58621 11.8397 10.7624 9.35507 11.1598Z" fill="#422B0D"/>
<path d="M33.8585 7.78781C33.6096 7.45462 33.1204 7.37434 32.7642 7.60717C32.4081 7.84 32.3222 8.29763 32.5711 8.63082C32.9874 9.31325 33.5238 9.92342 34.1589 10.4373C35.8325 11.8704 38.0254 12.6612 40.2955 12.6451C41.3683 12.605 41.2825 11.3204 40.3384 11.1598C37.8237 10.7745 35.5364 9.58221 33.8585 7.78781Z" fill="#422B0D"/>
<defs>
<radialGradient id="paint0_radial_157_3633" cx="0" cy="0" r="1" gradientUnits="userSpaceOnUse" gradientTransform="translate(24.8897 22.44) scale(24.4432 22.8654)">
<stop offset="0.5" stop-color="#FDE030"/>
<stop offset="0.92" stop-color="#F7C02B"/>
<stop offset="1" stop-color="#F4A223"/>
</radialGradient>
</defs>
</svg>
