<svg width="50" height="45" viewBox="0 0 50 45" fill="none" xmlns="http://www.w3.org/2000/svg">
<path d="M25.1098 44.88C13.1368 44.88 0.219604 37.855 0.219604 22.44C0.219604 7.02505 13.1368 0 25.1098 0C31.7615 0 37.8982 2.0473 42.4471 5.78061C47.3822 9.87521 50 15.6558 50 22.44C50 29.2242 47.3822 34.9647 42.4471 39.0593C37.8982 42.7926 31.7186 44.88 25.1098 44.88Z" fill="url(#paint0_radial_157_3607)"/>
<path d="M45.6614 9.10046C47.9487 12.5528 49.1417 16.6634 49.1417 21.2357C49.1417 28.0199 46.5239 33.7604 41.5888 37.855C37.0399 41.5883 30.8603 43.6757 24.2515 43.6757C16.5012 43.6757 8.37328 40.7252 3.57548 34.4669C8.19304 41.5562 16.8789 44.88 25.1098 44.88C31.7186 44.88 37.8982 42.7926 42.4471 39.0593C47.3822 34.9647 50 29.2242 50 22.44C50 17.3258 48.5109 12.7816 45.6614 9.10046Z" fill="#EB8F00"/>
<path d="M41.4601 26.1773C40.8593 25.1657 39.5547 24.7201 38.396 25.1336C34.5337 26.2576 29.8132 26.6711 25.0583 26.6751C20.4708 26.6912 15.9047 26.093 11.5017 24.8887C10.343 24.4753 9.03846 24.9209 8.43766 25.9325C7.85403 26.9401 8.27888 28.1082 8.7681 29.1158C11.5489 34.784 17.5998 38.1721 25.024 38.1922H25.0926C32.5168 38.1922 38.3703 35.0209 41.1296 29.3607C41.6189 28.3531 42.0437 27.1849 41.4601 26.1773Z" fill="white"/>
<path d="M18.8443 20.0274L18.78 19.9472L18.5954 19.7264L18.368 19.4976C18.2736 19.3972 18.162 19.3009 18.0547 19.1965C17.9474 19.0921 17.8144 18.9918 17.6942 18.9075C17.5827 18.8272 17.4625 18.7509 17.3338 18.6907C17.2479 18.6465 17.1535 18.6104 17.0548 18.5903C17.0248 18.5863 16.9947 18.5863 16.9647 18.5903C16.9647 18.5903 16.939 18.5903 16.9261 18.5903H16.8918H17.0076H16.7716C16.7501 18.5903 16.7072 18.5903 16.7716 18.5903H16.8059H16.7587C16.66 18.6104 16.5656 18.6425 16.4755 18.6907C16.351 18.7549 16.2266 18.8272 16.115 18.9075C15.9906 18.9958 15.8704 19.0921 15.7588 19.1965C15.5314 19.4012 15.3297 19.5979 15.2009 19.7545L14.9778 19.9953L14.8791 20.1037C14.2611 20.75 13.2183 20.8544 12.4673 20.3486C11.9867 20.0355 11.7421 19.4935 11.8365 18.9516C11.8365 18.9516 11.8665 18.791 11.948 18.506C12.0768 18.1006 12.257 17.7072 12.4845 17.3379C12.8492 16.7357 13.3428 16.2098 13.935 15.7923C14.3255 15.5113 14.7589 15.2865 15.2224 15.13C15.3511 15.0818 15.4842 15.0457 15.6172 15.0136C15.7588 14.9734 15.9004 14.9453 16.0463 14.9212L16.3081 14.8851L16.527 14.861H17.3209C17.4668 14.861 17.6084 14.8972 17.75 14.9172C18.0247 14.9614 18.2993 15.0296 18.5611 15.122C19.0246 15.2785 19.458 15.5033 19.8485 15.7843C20.4407 16.2018 20.9343 16.7277 21.299 17.3298C21.4321 17.5386 21.5479 17.7594 21.6423 17.9842C21.7239 18.1648 21.7925 18.3454 21.8483 18.5341C21.8784 18.6305 21.9041 18.7268 21.917 18.8232V18.9235C22.0457 19.7424 21.4364 20.5051 20.5609 20.6256C20.5395 20.6296 20.518 20.6296 20.4965 20.6336C19.87 20.7179 19.2434 20.4851 18.8443 20.0274Z" fill="#422B0D"/>
<path d="M35.7783 20.0274L35.7096 19.9472L35.5251 19.7264L35.2976 19.4976C35.2032 19.3972 35.0917 19.3009 34.9844 19.1965C34.8771 19.0921 34.7441 18.9918 34.6239 18.9075C34.5123 18.8272 34.3922 18.7509 34.2634 18.6907C34.1776 18.6465 34.0832 18.6104 33.9845 18.5903C33.9544 18.5863 33.9244 18.5863 33.8944 18.5903C33.8944 18.5903 33.8686 18.5903 33.8557 18.5903H33.8214H33.9373H33.7012C33.6798 18.5903 33.6369 18.5903 33.7012 18.5903H33.7356H33.6884C33.5897 18.6104 33.4953 18.6425 33.4051 18.6907C33.2807 18.7509 33.1605 18.8272 33.0489 18.9075C32.9202 18.9958 32.8 19.0921 32.6885 19.1965C32.461 19.4012 32.2593 19.5979 32.1306 19.7545L31.9074 19.9953L31.813 20.1037C31.1908 20.75 30.1522 20.8544 29.397 20.3486C28.9163 20.0355 28.6717 19.4935 28.7661 18.9516C28.7661 18.9516 28.7962 18.791 28.882 18.506C29.0107 18.0966 29.1867 17.7032 29.4184 17.3379C29.7832 16.7357 30.2724 16.2098 30.8646 15.7923C31.2551 15.5113 31.6886 15.2865 32.152 15.13C32.2808 15.0818 32.4138 15.0457 32.5469 15.0136C32.6885 14.9734 32.8301 14.9453 32.976 14.9212L33.2421 14.8851L33.4566 14.861H34.2505C34.3965 14.861 34.5381 14.8972 34.6797 14.9172C34.9586 14.9614 35.229 15.0296 35.4908 15.122C35.9542 15.2785 36.3877 15.5033 36.7782 15.7843C37.3704 16.2018 37.8639 16.7277 38.2287 17.3298C38.3617 17.5386 38.4776 17.7594 38.572 17.9842C38.6535 18.1608 38.7222 18.3414 38.778 18.5261C38.808 18.6224 38.8338 18.7188 38.8466 18.8151V18.9155C38.984 19.7344 38.3832 20.5011 37.5077 20.6296C37.4949 20.6296 37.482 20.6336 37.4691 20.6336C36.8297 20.734 36.1817 20.5011 35.7783 20.0274Z" fill="#422B0D"/>
<path d="M41.1125 27.6305C41.0738 27.6545 38.4518 29.4891 33.521 30.6773V26.1411C32.9588 26.2214 32.3837 26.2897 31.8044 26.3499V31.0386C29.8089 31.4079 27.7791 31.6127 25.7449 31.6528V26.667H25.0669C24.7193 26.667 24.376 26.667 24.0284 26.667V31.6528C24.2129 31.6568 24.2129 31.6608 24.0284 31.6608L24.0198 31.6528C22.0329 31.6207 20.0545 31.4441 18.0976 31.1189V26.2254C17.514 26.1532 16.9432 26.0689 16.3811 25.9766V30.7817C11.3086 29.6537 8.75952 27.8512 8.72519 27.8231C8.58357 27.7188 8.40762 27.6586 8.22738 27.6545C8.34754 28.1603 8.52778 28.6541 8.7681 29.1238C8.9183 29.4329 9.08138 29.7299 9.25303 30.027C11.4974 31.139 13.8963 31.9499 16.3811 32.4356V36.3937C16.9389 36.6466 17.514 36.8754 18.0976 37.0721V32.7567C20.0545 33.0618 22.0371 33.2304 24.0198 33.2585L24.0284 33.2666C24.0241 33.2666 24.0241 33.2666 24.0198 33.2666V38.168C24.3502 38.168 24.6849 38.2001 25.024 38.2001H25.7363V33.2585C27.7705 33.2224 29.8003 33.0297 31.8044 32.6845V37.1845C32.388 36.9999 32.9631 36.7831 33.521 36.5382V32.3433C36.1387 31.7813 38.6578 30.862 40.9923 29.6175C41.0352 29.5292 41.0867 29.449 41.1296 29.3607C41.4429 28.7666 41.6489 28.1282 41.7304 27.4699C41.5116 27.4458 41.2884 27.506 41.1125 27.6305Z" fill="#B3B3B3"/>
<path d="M41.636 25.9445C41.0266 24.9289 39.7177 24.4793 38.5505 24.8887C34.1475 26.089 29.5814 26.6871 24.9982 26.6671C20.4107 26.6871 15.8446 26.089 11.4416 24.8887C10.2872 24.4793 8.98266 24.9208 8.38186 25.9324C7.79823 26.94 8.21879 28.1082 8.7123 29.1158C8.93116 29.5694 9.17577 30.015 9.44613 30.4445C9.44613 30.4445 8.54493 27.3214 9.32597 26.4141C9.59204 26.0288 10.0383 25.7879 10.5276 25.7638C10.7293 25.7638 10.9267 25.7959 11.1198 25.8521C15.6 27.0845 20.2476 27.7068 24.921 27.6987H25.0712C29.7445 27.7068 34.3921 27.0845 38.8723 25.8521C39.0655 25.7959 39.2629 25.7638 39.4646 25.7638C39.9538 25.7879 40.4044 26.0288 40.6704 26.4141C41.4644 27.3214 40.5503 30.4566 40.5503 30.4566C40.8163 30.027 41.0824 29.5855 41.3056 29.1278C41.7948 28.1202 42.2196 26.9561 41.636 25.9445Z" fill="#EB8F00"/>
<defs>
<radialGradient id="paint0_radial_157_3607" cx="0" cy="0" r="1" gradientUnits="userSpaceOnUse" gradientTransform="translate(25.1098 22.44) scale(24.4438 22.8654)">
<stop offset="0.5" stop-color="#FDE030"/>
<stop offset="0.92" stop-color="#F7C02B"/>
<stop offset="1" stop-color="#F4A223"/>
</radialGradient>
</defs>
</svg>
